<?xml version="1.0"?>
<svg xmlns="http://www.w3.org/2000/svg" id="Capa_1" enable-background="new 0 0 512 512" height="512px" viewBox="0 0 512 512" width="512px" class=""><g><g><g><path d="m297.108 207.106c2.846 3.021 7.592 3.153 10.603.319l31.489-29.648c3.145-2.963 3.141-7.962 0-10.922l-31.489-29.648c-3.015-2.839-7.761-2.697-10.603.319-2.839 3.016-2.696 7.763.319 10.603l25.69 24.188-25.69 24.188c-3.015 2.839-3.157 7.586-.319 10.601z" data-original="#000000" class="active-path" data-old_color="#000000" fill="#FFFFFF"/><path d="m203.963 207.426c3.015 2.838 7.761 2.697 10.603-.319 2.839-3.016 2.696-7.763-.319-10.603l-25.69-24.188 25.69-24.188c3.016-2.84 3.158-7.587.319-10.603-2.841-3.015-7.587-3.157-10.603-.319l-31.489 29.648c-3.145 2.963-3.141 7.962 0 10.922z" data-original="#000000" class="active-path" data-old_color="#000000" fill="#FFFFFF"/><path d="m229.865 229.263c3.728 1.826 8.216.279 10.035-3.434l45.343-92.518c1.823-3.72.286-8.213-3.434-10.035-3.722-1.823-8.214-.285-10.035 3.434l-45.343 92.518c-1.823 3.719-.285 8.212 3.434 10.035z" data-original="#000000" class="active-path" data-old_color="#000000" fill="#FFFFFF"/><path d="m492.075 402.228h-13.163v-253.28c0-18.472-15.027-33.499-33.499-33.499h-52.49v-61.387c0-10.721-8.723-19.443-19.443-19.443h-235.285c-10.721 0-19.443 8.723-19.443 19.443v61.387h-52.165c-18.472 0-33.499 15.027-33.499 33.499v253.28h-13.163c-10.987 0-19.925 8.938-19.925 19.925 0 30.453 24.775 55.229 55.229 55.229h401.543c30.453 0 55.229-24.775 55.229-55.229-.001-10.987-8.939-19.925-19.926-19.925zm-353.88-352.61h235.284c2.45 0 4.443 1.993 4.443 4.443v20.834h-182.775c-4.143 0-7.5 3.357-7.5 7.5s3.357 7.5 7.5 7.5h182.775v184.409c0 2.45-1.993 4.443-4.443 4.443h-235.284c-2.45 0-4.443-1.993-4.443-4.443v-184.408h26.329c4.143 0 7.5-3.357 7.5-7.5s-3.357-7.5-7.5-7.5h-26.329v-20.834c0-2.451 1.993-4.444 4.443-4.444zm-90.107 99.329c0-10.2 8.299-18.499 18.499-18.499h52.165v20.206h-36.097c-7.919 0-14.361 6.442-14.361 14.361v202.645c0 7.919 6.442 14.361 14.361 14.361h346.689c7.919 0 14.361-6.442 14.361-14.361v-22.201c0-4.143-3.357-7.5-7.5-7.5s-7.5 3.357-7.5 7.5v21.563h-345.411v-201.368h35.458v108.65c0 10.721 8.723 19.443 19.443 19.443h235.284c10.721 0 19.443-8.723 19.443-19.443v-108.65h35.783v144.742c0 4.143 3.357 7.5 7.5 7.5s7.5-3.357 7.5-7.5v-145.38c0-7.919-6.442-14.361-14.361-14.361h-36.422v-20.206h52.49c10.2 0 18.499 8.299 18.499 18.499v253.28h-415.823zm135.612 268.281h144.6v7.539c0 4.156-3.382 7.538-7.539 7.538h-129.522c-4.157 0-7.539-3.382-7.539-7.538zm273.071 45.154h-401.542c-22.182 0-40.229-18.047-40.229-40.229 0-2.716 2.209-4.926 4.925-4.926h148.775v7.539c0 12.428 10.111 22.538 22.539 22.538h129.521c12.428 0 22.539-10.11 22.539-22.538v-7.539h148.775c2.716 0 4.925 2.21 4.925 4.926.001 22.182-18.046 40.229-40.228 40.229z" data-original="#000000" class="active-path" data-old_color="#000000" fill="#FFFFFF"/></g></g></g> </svg>
